<?xml version="1.0" encoding="UTF-8" standalone="no"?>
<!-- Created with Inkscape (http://www.inkscape.org/) -->

<svg
   width="147.43147mm"
   height="89.141945mm"
   viewBox="0 0 147.43147 89.141945"
   version="1.1"
   id="svg1"
   inkscape:version="1.3.2 (091e20e, 2023-11-25, custom)"
   sodipodi:docname="HotoMoe-Path.svg"
   xml:space="preserve"
   inkscape:export-filename="drawing.png"
   inkscape:export-xdpi="300"
   inkscape:export-ydpi="300"
   xmlns:inkscape="http://www.inkscape.org/namespaces/inkscape"
   xmlns:sodipodi="http://sodipodi.sourceforge.net/DTD/sodipodi-0.dtd"
   xmlns="http://www.w3.org/2000/svg"
   xmlns:svg="http://www.w3.org/2000/svg"><sodipodi:namedview
     id="namedview1"
     pagecolor="#ffffff"
     bordercolor="#000000"
     borderopacity="0.25"
     inkscape:showpageshadow="2"
     inkscape:pageopacity="0.0"
     inkscape:pagecheckerboard="false"
     inkscape:deskcolor="#d1d1d1"
     inkscape:document-units="mm"
     inkscape:zoom="1"
     inkscape:cx="254"
     inkscape:cy="51.5"
     inkscape:window-width="1860"
     inkscape:window-height="1237"
     inkscape:window-x="2457"
     inkscape:window-y="144"
     inkscape:window-maximized="0"
     inkscape:current-layer="g8" /><defs
     id="defs1" /><g
     inkscape:label="Layer 1"
     inkscape:groupmode="layer"
     id="layer1"
     transform="translate(-25.694632,-73.609899)"><path
       id="path35"
       style="fill:#ffffff;stroke-width:0.1;stroke-linecap:round"
       d="m 80.06055,73.609977 -0.0021,5.17e-4 -5.23e-4,0.0021 c -0.30002,-0.0058 -0.587417,0.01722 -0.856182,0.05478 -0.55419,0.07753 -1.682479,0.475229 -2.233086,0.827856 -0.552988,0.354147 -0.838943,0.610729 -1.278517,0.974618 -0.447989,0.37084 -1.234571,0.960855 -1.110001,0.875399 -0.237348,0.162832 -1.101854,0.75305 -1.883496,1.286226 -1.137965,0.776251 -0.871118,0.631849 -1.490992,0.871265 -0.689506,0.266325 -1.326165,0.530505 -2.00962,0.883667 -0.668384,0.345395 -1.206575,0.06377 -2.467019,2.133203 -0.470839,0.773383 -0.823852,2.191443 -0.573056,3.3507 0.250796,1.159238 0.811898,1.840151 1.199493,2.257226 0.8963,0.964524 1.02085,0.858984 1.36382,1.067635 0.01832,0.0111 0.03867,0.02093 0.05705,0.03204 l -0.178459,-0.987537 c 0.04018,0.187935 0.09885,0.409201 0.21457,0.766878 l 0.08426,0.258383 c 0.005,0.01197 0.01003,0.02368 0.01518,0.03566 0.279262,0.163585 0.558719,0.324135 0.866649,0.476974 l -0.842052,-0.416512 c 0.06075,0.180501 0.13343,0.356577 0.217709,0.527616 0.05656,0.11139 0.06738,0.132401 0.07641,0.149345 0.01654,0.02375 0.05537,0.142572 0.09158,0.220658 0.04204,0.09018 0.08733,0.179055 0.135545,0.266134 l 0.193112,0.350366 c 6.69e-4,9.66e-4 0.0019,0.0031 0.0026,0.0041 l 0.0058,0.0098 c 0.226867,0.416698 0.260337,0.551358 0.798092,1.210262 0.0029,0.0039 0.007,0.0076 0.0099,0.01189 0.32355,0.39369 0.653224,0.75933 1.111572,1.203027 0.467427,0.452489 0.811347,0.722331 1.214146,1.063501 0.575159,0.48718 0.970323,0.845572 1.728588,1.267623 0.107142,0.05967 0.173465,0.04323 0.289929,0.09508 -0.13158,-0.0029 -0.249225,-0.03876 -0.382037,-0.03876 -2.597968,1e-5 -5.190689,0.580296 -7.474324,1.827279 -0.06081,-0.311838 -0.101906,-0.585957 -0.363196,-1.208712 -0.173078,-0.412657 -0.627838,-1.178449 -1.097965,-1.654163 -0.418166,-0.423128 -0.702293,-0.599161 -0.956663,-0.768945 0.01292,-0.01033 0.09913,0.06843 -0.01884,-0.0987 -0.484892,-0.686913 -0.829447,-1.216921 -1.751614,-1.964738 -0.418057,-0.339008 -0.724917,-0.506045 -1.054528,-0.706933 l 0.124555,0.220658 c -0.04624,-0.08168 -0.09305,-0.151426 -0.139208,-0.22996 -0.153248,-0.09307 -0.309103,-0.226517 -0.488798,-0.328146 l 0.439081,0.246497 c -0.09748,-0.163585 -0.192549,-0.332615 -0.292024,-0.486275 -0.162448,-0.250934 0.0089,-0.220073 -0.819547,-1.047998 -0.801616,-0.80232 -2.169537,-1.389057 -3.305932,-1.420069 -0.0045,-9e-6 -0.0091,-9e-6 -0.01361,0 -0.24575,-0.0058 -0.62025,0.0097 -1.040396,0.0863 -0.64048,0.120669 -1.92072,0.740662 -2.414162,1.166854 -0.495472,0.427946 -0.696073,0.682739 -1.02522,1.050065 -0.319377,0.356425 -0.935622,0.974562 -0.771402,0.822689 -0.172159,0.159221 -0.816632,0.749051 -1.396267,1.282092 -0.833021,0.766065 -0.446766,0.484271 -0.824783,0.681095 -0.587421,0.305871 -1.045787,0.561403 -1.650086,0.982369 -0.573149,0.399303 -1.177919,0.421724 -2.025844,2.298568 v 0.0021 c -0.375152,0.830889 -0.3055,1.929572 -0.09996,2.937805 -0.09105,-0.01226 -0.149257,-0.08252 -0.242306,-0.09043 h -0.0026 c -0.437423,-0.03738 -7.609055,2.263751 -8.333645,2.440671 a 5.9919526,5.9166794 0 0 0 0.432801,-2.16937 5.9919526,5.9166794 0 0 0 -5.992228,-5.916435 5.9919526,5.9166794 0 0 0 -5.991705,5.916435 5.9919526,5.9166794 0 0 0 0.383084,2.03967 l -0.2444,0.41496 c -0.372934,0.84943 -0.356793,1.90425 -0.0717,2.69958 a 6.6550936,3.8587036 0 0 0 -0.110948,0.66042 6.6550936,3.8587036 0 0 0 6.655298,3.85868 6.6550936,3.8587036 0 0 0 3.107585,-0.45424 l 6.620235,18.60042 c -0.808333,-0.60712 -1.860726,-1.07154 -2.813469,-1.09761 -0.0044,-1e-5 -0.0087,-1e-5 -0.01308,0 -0.455513,-0.0109 -0.778295,0.0388 -0.989111,0.0754 -0.014,0.003 -0.0279,0.005 -0.04187,0.008 -0.637858,0.11699 -1.928118,0.74461 -2.423582,1.17254 -0.495457,0.42792 -0.696601,0.68377 -1.025744,1.05109 -0.315179,0.35175 -0.924281,0.96149 -0.7714,0.82011 -0.183602,0.16979 -0.820403,0.75459 -1.396268,1.28416 -0.833037,0.76609 -0.446837,0.48378 -0.824782,0.68058 -0.57741,0.30068 -1.033469,0.55073 -1.650087,0.9803 -0.583552,0.40652 -1.184499,0.43911 -2.026367,2.3027 -0.626137,1.38853 -0.150805,3.77492 0.452688,4.65036 0.40314,0.5848 0.489609,0.56002 0.662546,0.69763 0.0037,0.35481 0.0097,0.71885 0.141302,1.16944 0.0043,0.0145 0.0092,0.0284 0.01361,0.0429 0.268724,0.88559 0.673817,1.39603 1.035163,1.77871 0.01321,0.0139 0.02637,0.0266 0.03977,0.0403 -0.116767,-0.12034 0.01411,0.10411 0.391456,0.40928 0.05241,0.10714 0.03449,0.15281 0.09996,0.26769 0.188236,0.33051 0.49112,0.49506 0.731104,0.75447 0.01215,0.016 0.01378,0.0209 0.0267,0.0377 0.352993,0.46065 0.623633,0.74874 0.920552,1.08779 0.434779,0.49649 0.71034,0.86161 1.428715,1.3994 0.717609,0.5372 2.000266,0.92591 2.157725,0.96015 1.677977,0.36271 1.857027,0.16554 2.818703,-0.0501 1.013163,-0.2274 1.43119,-0.41898 2.182846,-0.78806 0.690041,-0.33882 1.213951,-0.65166 1.829592,-1.07591 0.81017,-0.55831 1.462564,-1.18514 2.260823,-1.99626 l 2.284897,8.19175 c 0.01641,0.0594 0.0339,0.11859 0.05285,0.17725 0.678978,2.08341 2.953137,3.97674 5.80592,3.34502 l 0.0073,-0.002 0.05913,-0.0129 c 0.06606,-0.0148 0.132004,-0.0313 0.197299,-0.0491 l 5.387249,-1.46554 c 0.06017,-0.0164 0.120101,-0.0338 0.179505,-0.0527 0.527161,-0.16745 0.984353,-0.46885 1.408827,-0.80874 0.478128,0.0548 0.970136,0.0751 1.495702,-0.0264 -0.09494,0.7601 -0.05015,1.54204 0.188926,2.30994 l -0.0021,-0.002 0.643707,2.07275 0.0021,0.002 c 0.459507,1.47582 1.794001,2.74127 2.841206,3.21634 1.047206,0.47505 1.910832,0.48796 2.003864,0.49455 0.632077,0.0448 0.908695,-0.047 1.32143,-0.094 l 0.258006,0.17156 -0.230792,-0.17363 c 0.02429,-0.003 0.05417,-0.003 0.07798,-0.006 0.312677,0.24128 0.687876,0.33042 1.033069,0.50333 l 1.287937,0.6289 0.772971,0.61133 c 1.2526,0.66649 2.754521,0.87153 4.190373,0.43563 h 0.0016 l 2.097018,-0.63768 c 2.228623,-0.6765 3.675827,-2.71352 3.801009,-4.91237 l 1.689338,-1.46916 0.151245,1.53531 v 0.002 c 0.295601,3.01271 3.12065,5.29816 6.162836,5.00744 l 10.09259,-0.9648 c 3.04192,-0.29068 5.36863,-3.07152 5.07482,-6.0818 v -0.002 l -0.43019,-4.3956 c 0.74072,0.32847 1.55971,0.5683 2.38538,0.79943 -0.0462,0.21119 -0.0759,0.42568 -0.0895,0.64131 l 2.00544,4.74803 c 1.88198,2.90644 6.28401,2.57066 7.69204,-0.58653 0.54786,-0.20269 1.04941,-0.51173 1.47424,-0.90899 3.32285,-0.66298 4.65343,-4.64382 2.38329,-7.12979 l -2.87941,-2.49649 c 1.0791,-0.28487 2.13027,-0.69913 3.00187,-1.43919 1.32597,-1.1259 2.04048,-2.64575 2.34874,-3.91656 0.2341,-0.96495 0.7735,-3.42136 -0.2308,-6.566 -0.24649,-0.77184 -0.63114,-1.56345 -1.13406,-2.3363 1.66908,0.0593 3.40083,-0.71226 4.26992,-2.62723 0.002,-0.004 0.004,-0.008 0.006,-0.0114 l 0.008,-0.0176 c 0.0356,-0.0795 0.0688,-0.15987 0.0995,-0.24133 l 0.5155,-1.36116 c 0.0155,-0.0401 0.0302,-0.0804 0.0445,-0.12092 0.31889,-0.92396 0.29125,-1.67737 0.14706,-2.32699 0.0712,-0.1292 0.17747,-0.20942 0.24073,-0.34882 l 0.59766,-1.26711 c 0.008,-0.0169 0.0153,-0.0342 0.023,-0.0512 0.32608,-0.71706 0.34269,-1.54115 0.22555,-2.35747 0.44977,-0.0343 0.9552,-0.15513 1.46639,-0.28629 -1.71275,4.47492 -2.67525,9.7909 -2.33932,16.09256 0.0693,1.76072 1.19963,3.22453 2.75381,3.83852 l 1.83169,0.31058 c -0.64843,0.0311 -1.26629,-0.0872 -1.83169,-0.31058 l -0.057,-0.0103 c 11.24243,4.61497 21.80936,1.91917 29.22219,-3.11351 7.41286,-5.03268 12.18099,-11.81986 13.53826,-17.87333 0.47342,-2.11376 -0.71017,-4.24733 -2.76899,-4.99142 0,0 -3.68359,-1.3437 -9.00247,-1.66708 0.53871,-3.40927 0.70361,-6.66727 0.0235,-9.44387 -0.51576,-2.10257 -2.52618,-3.504499 -4.70534,-3.280937 0,0 -7.70367,0.752847 -15.15588,5.764507 -1.69357,1.13893 -3.35545,2.60862 -4.93666,4.26382 0.038,-0.10123 0.0627,-0.1213 0.10519,-0.24185 0.30874,-0.8756 0.44269,-1.79713 0.22714,-2.89439 -0.21555,-1.09726 -0.93533,-2.62368 -2.61251,-3.45096 -1.37147,-0.67643 -1.7278,-0.48348 -2.11796,-0.48937 -0.38237,-0.006 -0.66241,0.0189 -0.94149,0.0522 -1.18031,-0.87493 -2.49918,-1.48471 -3.96271,-1.81746 -0.23043,-0.26228 -0.40763,-0.52287 -0.73529,-0.79375 -0.60291,-0.498432 -1.47791,-1.260359 -3.3457,-1.242815 -0.44383,0.0039 -0.92496,0.17858 -1.39627,0.341065 -0.47966,-0.91825 -0.87128,-1.86235 -1.60403,-2.700094 -2.29832,-2.627694 -6.06227,-4.523755 -10.50184,-4.523755 -3.41876,-1.9e-5 -6.8242,1.01494 -9.52791,3.229777 -0.371375,-1.642652 -1.648416,-2.988079 -3.29599,-3.558439 -0.0088,-0.04982 -0.01379,-0.09858 -0.0225,-0.148311 -0.01252,-0.06768 -0.02665,-0.13504 -0.04239,-0.202055 -0.179092,-0.792356 -0.581743,-1.828914 -1.541232,-2.711979 -0.959489,-0.883058 -2.403193,-1.332869 -3.481249,-1.327568 h -0.0021 c -0.309928,0.0019 -0.590819,0.02956 -0.828969,0.06615 -0.02298,0.0039 -0.04567,0.0072 -0.06856,0.01137 0.02317,-0.03901 0.04489,-0.05537 0.06856,-0.09612 v -5.17e-4 -5.17e-4 -5.17e-4 -5.16e-4 c 0.5492,-0.94731 0.784295,-1.229978 0.93416,-2.794145 0.109972,-1.145585 0.438791,-1.361755 -0.64737,-3.28197 l -0.0021,-0.0021 c -0.258265,-0.456137 -0.892301,-1.223649 -1.430284,-1.625741 -0.535095,-0.3999 -0.880695,-0.554581 -1.209437,-0.718302 0.119818,0.177006 -0.293646,-0.145663 -0.0068,-0.0041 0.0019,9.66e-4 0.0048,0.0021 0.0068,0.0041 -0.02914,-0.04306 -0.06041,-0.08858 -0.175318,-0.20929 -0.644064,-0.676768 -1.168588,-1.220486 -2.176565,-1.826762 -0.582242,-0.350235 -1.037613,-0.548685 -1.549083,-0.769979 l 0.104668,0.136943 c -0.0393,-0.05146 -0.07914,-0.09312 -0.118275,-0.143144 -0.100483,-0.04345 -0.197265,-0.105588 -0.30406,-0.150378 l 0.275276,0.114722 c -0.167965,-0.213551 -0.335429,-0.425092 -0.504499,-0.618567 -0.217798,-0.249255 -0.103478,-0.294399 -1.015799,-0.971 -0.861035,-0.639471 -2.00756,-0.984256 -2.958434,-1.003557 z m -23.592631,19.7528 c 0.002,5.43e-4 0.0038,8.38e-4 0.0058,0.001 0.451547,0.07191 0.715235,0.09184 0.875022,0.0925 0.160838,7.34e-4 0.219863,-0.01676 0.268997,-0.01705 -0.04749,7.8e-5 -0.111037,0.01638 -0.259576,0.01705 -0.0034,0 -0.006,1e-5 -0.0094,0 -0.0015,-9e-6 -0.0037,1e-5 -0.0053,0 -0.158888,-7.62e-4 -0.419975,-0.02079 -0.865078,-0.09147 -0.0017,-2.66e-4 -0.0031,-8.93e-4 -0.0048,-0.001 -0.0029,-4.72e-4 -0.0027,-4e-5 -0.0058,-5.17e-4 z m -3.654475,2.10168 c 0.136243,0.0098 0.268901,0.02835 0.406111,0.0088 -0.0011,1.45e-4 -0.002,3.63e-4 -0.0031,5.17e-4 -0.132863,0.01844 -0.261715,0.0018 -0.393551,-0.0078 -0.0032,-2.41e-4 -0.0062,-9.39e-4 -0.0094,-0.001 z m 5.048649,6.249233 c -0.149063,0.12587 -0.08857,0.0746 -0.116705,0.0925 -0.0023,0.002 -0.02266,0.0118 -0.02721,0.0145 2.8e-4,-2.6e-4 9.63e-4,-9.9e-4 10e-4,-0.001 -0.224777,0.20972 -0.189359,0.17463 0.142871,-0.10593 z m 29.007617,33.15766 c 0.01183,0.0209 0.02599,0.0477 0.0471,0.0879 -0.144693,-0.27638 -0.04763,-0.0402 -0.04763,-0.0656 0,0.009 0.0019,-0.0136 5.23e-4,-0.0222 z" /><g
       id="g8"
       transform="translate(-2.7985414,0.58385051)"><g
         id="g22"
         transform="translate(99.83603,-47.610921)"><path
           style="fill:#e0a0b0;fill-opacity:1;stroke:none;stroke-width:0.1;stroke-linecap:round;stroke-dasharray:none"
           d="m 35.429556,184.11417 c -1.64546,-30.38677 25.65563,-33.22983 25.65563,-33.22983 2.15977,8.93092 -3.86967,31.90132 -25.65566,33.22985 z"
           id="path22-8"
           sodipodi:nodetypes="cccc" /><path
           style="fill:#f4b4c4;fill-opacity:1;stroke:none;stroke-width:0.1;stroke-linecap:round;stroke-dasharray:none"
           d="m 35.429346,184.11094 c 11.88013,-28.01653 37.651586,-18.56855 37.651586,-18.56855 -1.98616,8.97113 -17.499576,26.95243 -37.651616,18.56855 z"
           id="path22"
           sodipodi:nodetypes="cccc" /></g><path
         d="m 166.41534,64.434698 c 0.0968,-0.0097 0.18391,-0.08712 0.18391,-0.183916 v -0.01936 l -0.0968,-1.500369 c -0.01,-0.106478 -0.1452,-0.193596 -0.242,-0.193596 h -0.0194 l -2.38123,0.106478 v -2.865221 l 1.64557,0.02904 h 0.0194 c 0.0968,0 0.18391,-0.08712 0.18391,-0.183917 l 0.0194,-1.510048 c 0,-0.106478 -0.0774,-0.193596 -0.18391,-0.193596 l -5.44973,-0.106478 c -0.11616,0 -0.20328,0.07744 -0.20328,0.193596 l -0.029,1.500369 c 0,0.106478 0.0871,0.203276 0.1936,0.203276 l 1.64557,0.02904 v 3.010418 l -2.22636,0.106478 c -0.10648,0 -0.13552,0.0968 -0.13552,0.203275 l 0.10648,1.500369 c 0.01,0.106478 0.0968,0.193596 0.20328,0.193596 z"
         id="text2-26"
         style="font-size:9.6798px;font-family:'FOT-Yuruka Std';-inkscape-font-specification:'FOT-Yuruka Std';fill:#ff9cab;stroke-width:0.302493"
         transform="rotate(24.183723)"
         aria-label="エ" /><path
         style="font-size:30.5229px;font-family:'FOT-Yuruka Std';-inkscape-font-specification:'FOT-Yuruka Std';fill:#ff9cab;stroke-width:0.4142"
         d="m 23.242608,135.39196 c 0.21366,-0.18314 0.274706,-0.36628 0.274706,-0.51889 0,-0.33575 -0.335752,-0.64098 -0.518889,-0.7936 -1.495622,-1.19039 -1.89242,-2.71653 -1.922943,-4.70052 -0.09157,-6.04354 -4.670004,-9.4621 -10.408309,-9.4621 -0.335752,0 -0.7020264,0 -1.0683012,0.0305 v -7.93595 c 0,-0.33575 -0.2747061,-0.64098 -0.610458,-0.64098 H 2.8838339 c -0.3662748,0 -0.6409809,0.30523 -0.6409809,0.64098 v 24.96773 c 0,0.36627 0.2747061,0.64098 0.6409809,0.64098 h 6.1045799 c 0.3357519,0 0.610458,-0.27471 0.610458,-0.64098 v -11.07981 h 0.1526145 c 2.1976487,0 3.9069307,1.31248 3.9069307,5.00575 0,6.19615 5.646737,7.23393 5.768829,7.23393 0.274706,0 0.579935,-0.0916 0.915687,-0.36627 z"
         id="text1-1"
         transform="rotate(-19.964268)"
         aria-label="h" /><path
         style="font-size:30.5229px;font-family:'FOT-Yuruka Std';-inkscape-font-specification:'FOT-Yuruka Std';fill:#ff9cab;stroke-width:0.4142"
         d="m 74.514449,126.13851 c 0.03052,-0.0916 0.06105,-0.18313 0.06105,-0.24418 0,-0.33575 -0.366274,-0.45784 -0.702026,-0.61046 -1.343008,-0.57993 -1.709283,-2.68601 -1.709283,-5.4636 l 2.014512,0.0916 h 0.06105 c 0.335751,0 0.579935,-0.2747 0.610458,-0.57993 l 0.366274,-5.0668 c 0,-0.36628 -0.274706,-0.67151 -0.610458,-0.67151 l -2.10608,-0.12209 c 0.09157,-1.28196 0.183138,-2.62497 0.244184,-3.90693 0,-0.51889 -0.244184,-0.82412 -0.763073,-0.85464 l -5.768828,-0.27471 h -0.122092 c -0.793595,0 -0.854641,0.57994 -0.885164,0.94621 -0.09157,1.31249 -0.152614,2.56393 -0.21366,3.7238 l -1.953466,-0.1221 c -0.366274,0 -0.64098,0.27471 -0.671503,0.61046 l -0.366275,5.0668 c 0,0.33576 0.274706,0.64098 0.610458,0.67151 l 2.289217,0.12209 c 0.152615,7.72229 1.861897,10.40831 6.776084,11.38504 0.09157,0.0305 0.183137,0.0305 0.274706,0.0305 0.457844,0 0.73255,-0.30523 0.976733,-0.88516 z"
         id="text1-1-0"
         transform="rotate(-12.583123)"
         aria-label="t" /><path
         style="font-size:30.5229px;font-family:'FOT-Yuruka Std';-inkscape-font-specification:'FOT-Yuruka Std';fill:#ff9cab;stroke-width:0.4142"
         d="m 122.06003,104.53554 c 0,-3.96797 -2.89967,-9.248436 -9.64523,-9.248436 -5.37203,0 -10.07256,3.26595 -10.07256,9.553666 0,5.37203 4.36478,8.97373 9.34001,8.97373 4.33425,0 10.37778,-3.32699 10.37778,-9.27896 z m -9.64523,3.44909 c -1.73981,0 -3.38804,-1.40405 -3.38804,-3.51013 0,-1.37353 0.73255,-3.54066 3.29647,-3.54066 3.11334,0 3.23543,2.96072 3.23543,3.54066 0,1.7398 -0.97674,3.51013 -3.14386,3.51013 z"
         id="text1-1-5"
         aria-label="o" /><path
         style="font-size:31.3723px;font-family:'FOT-Yuruka Std';-inkscape-font-specification:'FOT-Yuruka Std';fill:#e46781;stroke-width:0.4142"
         d="m 140.09114,121.07181 c 0.9098,0 1.31764,-0.43922 1.56861,-0.94117 0.47059,-1.06666 1.28627,-3.19998 1.28627,-3.5137 0,-0.53333 -0.53333,-0.81568 -0.97254,-0.81568 h -0.0627 c -0.2196,0.0314 -0.47058,0.0314 -0.69019,0.0314 -3.92154,0 -5.5529,-2.50978 -5.5529,-4.73722 0,-1.94508 1.2549,-3.26271 2.76077,-3.26271 1.31763,0 1.91371,1.00391 1.91371,1.28626 0,0.43921 -0.21961,0.50196 -1.85097,0.87842 -0.40784,0.0941 -0.65882,0.25098 -0.65882,0.59608 0,0.12549 0.59608,2.16469 0.97254,3.19997 0.12549,0.37647 0.28236,0.59608 0.78431,0.59608 1.63136,-0.0628 3.95291,-0.40784 5.42741,-0.9098 1.85097,-0.62745 2.44704,-1.81959 2.44704,-3.26272 0,-1.03529 -0.3451,-7.96856 -8.12543,-7.96856 -7.15288,0 -10.32148,4.70584 -10.32148,9.19208 0,4.76859 3.57644,9.6313 10.69795,9.6313 z"
         id="text1-1-3"
         transform="matrix(0.99955246,0.23942741,-0.22663809,0.94616007,0,0)"
         aria-label="e" /><path
         style="font-size:30.5229px;font-family:'FOT-Yuruka Std';-inkscape-font-specification:'FOT-Yuruka Std';fill:#e46781;stroke-width:0.4142"
         d="m 100.15501,135.08 c 0,-3.96798 -2.899673,-9.24844 -9.645234,-9.24844 -5.37203,0 -10.072557,3.26595 -10.072557,9.55367 0,5.37203 4.364775,8.97373 9.340008,8.97373 4.334251,0 10.377783,-3.327 10.377783,-9.27896 z m -9.645234,3.44909 c -1.739805,0 -3.388042,-1.40406 -3.388042,-3.51014 0,-1.37353 0.73255,-3.54065 3.296474,-3.54065 3.113335,0 3.235427,2.96072 3.235427,3.54065 0,1.73981 -0.976733,3.51014 -3.143859,3.51014 z"
         id="text1-1-5-9"
         aria-label="o" /><path
         style="font-size:30.5229px;font-family:'FOT-Yuruka Std';-inkscape-font-specification:'FOT-Yuruka Std';fill:#e46781;stroke-width:0.4142"
         d="m 34.842257,158.64792 c 0.335752,-0.0305 0.579935,-0.30523 0.579935,-0.67151 L 34.87278,147.07974 c 1.739805,0.24418 2.380786,1.4651 2.533401,4.76157 0.366275,6.01301 5.15837,6.95922 5.58569,6.95922 0.305229,0 0.579936,-0.12209 0.915687,-0.42732 0,0 2.594447,-2.47236 2.594447,-2.5334 0.183137,-0.15262 0.244183,-0.33575 0.244183,-0.48837 0,-0.33575 -0.366275,-0.64098 -0.549412,-0.79359 -1.434576,-1.12935 -1.770328,-2.62497 -1.89242,-4.60896 -0.335752,-5.55517 -4.273206,-8.94321 -9.645236,-8.94321 -1.709283,0 -3.571179,0.33575 -5.524645,1.0683 -1.190393,-0.45784 -2.472355,-0.6715 -3.845885,-0.6715 -1.4651,0 -2.991244,0.24418 -4.547912,0.76307 l -1.831374,0.0916 c -0.305229,0.0305 -0.549413,0.2747 -0.549413,0.61046 v 0.061 l 0.763073,15.87191 c 0.03052,0.33575 0.274706,0.61046 0.579935,0.61046 h 0.06105 l 5.707782,-0.27471 c 0.335752,-0.0305 0.579935,-0.30523 0.579935,-0.6715 L 25.50225,147.38497 c 1.922943,0.15261 2.563924,1.43457 2.716538,4.51739 l 0.305229,6.44033 c 0.03052,0.33575 0.274706,0.61045 0.579935,0.61045 h 0.06105 z"
         id="text1-1-5-5"
         transform="rotate(-12.642232)"
         aria-label="m" /><path
         style="font-size:30.5229px;font-family:'FOT-Yuruka Std';-inkscape-font-specification:'FOT-Yuruka Std';fill:#ff9cab;stroke-width:0.4142"
         d="m 86.101836,107.11235 c 0,-3.96798 -2.899676,-9.248441 -9.645237,-9.248441 -5.37203,0 -10.072556,3.265951 -10.072556,9.553671 0,5.37203 4.364774,8.97373 9.340007,8.97373 4.334252,0 10.377786,-3.327 10.377786,-9.27896 z m -9.645237,3.44909 c -1.739805,0 -3.388041,-1.40406 -3.388041,-3.51014 0,-1.37353 0.732549,-3.54065 3.296473,-3.54065 3.113336,0 3.235427,2.96072 3.235427,3.54065 0,1.73981 -0.976733,3.51014 -3.143859,3.51014 z"
         id="text1-1-5-6"
         aria-label="o" /><path
         d="m 64.069387,143.96466 c 0.106478,0 0.193596,-0.0871 0.193596,-0.1936 v -3.50409 l 1.355172,0.0678 c 0.106478,0 0.203276,-0.0774 0.203276,-0.18391 l 0.07744,-1.58749 v -0.0194 c 0,-0.0968 -0.08712,-0.18392 -0.183916,-0.18392 l -1.45197,-0.0774 v -1.65524 c 0,-0.11616 -0.08712,-0.20328 -0.193596,-0.20328 h -1.897241 c -0.116157,0 -0.203276,0.0871 -0.203276,0.20328 v 1.53909 l -2.100516,-0.10648 h -0.01936 c -0.0968,0 -0.183916,0.0871 -0.183916,0.18392 l -0.07744,1.5778 v 0.0194 c 0,0.10648 0.08712,0.18392 0.183916,0.1936 l 2.197314,0.10648 v 3.62992 c 0,0.10648 0.08712,0.1936 0.203276,0.1936 z m -4.626944,-0.49367 c 0.0484,0.10647 0.0968,0.15487 0.203275,0.15487 0.251675,0 1.200296,-0.25167 2.032758,-0.82278 0.06776,-0.0484 0.0968,-0.10648 0.0968,-0.17424 0,-0.0581 -0.01936,-0.12583 -0.05808,-0.18391 l -0.706626,-1.28742 c -0.03872,-0.0677 -0.106478,-0.11615 -0.203276,-0.11615 -0.02904,0 -0.06776,0 -0.0968,0.01 -0.309753,0.0871 -1.219654,0.30975 -1.771403,0.42591 -0.0968,0.0194 -0.203276,0.0387 -0.203276,0.15488 0,0.0387 0.0097,0.0774 0.02904,0.13551 z m 8.237509,-0.70663 c 0.06776,-0.029 0.0968,-0.0774 0.0968,-0.13552 0,-0.33879 -1.364851,-1.51004 -1.703644,-1.51004 -0.07744,0 -0.145197,0.029 -0.222636,0.0678 l -1.190615,0.63887 c -0.03872,0.0194 -0.05808,0.0581 -0.05808,0.10648 0,0.0581 0.02904,0.1452 0.08712,0.21295 0.222636,0.30008 0.755025,0.9583 1.064778,1.37454 0.0484,0.0581 0.07744,0.0968 0.135517,0.0968 0.03872,0 0.106478,-0.0194 0.203276,-0.0678 z"
         id="text2-26-3"
         style="font-size:9.6798px;font-family:'FOT-Yuruka Std';-inkscape-font-specification:'FOT-Yuruka Std';fill:#e46781;stroke-width:0.302493"
         transform="rotate(-14.349879)"
         aria-label="ホ" /><path
         d="m 131.72679,95.24708 c 0.10648,0 0.18391,-0.07744 0.18391,-0.183916 v -3.842881 c 0.63887,0.309754 1.63589,0.842143 2.11988,1.142217 0.0484,0.02904 0.11616,0.05808 0.18392,0.05808 0.0678,0 0.13551,-0.02904 0.18391,-0.106478 1.0551,-1.723005 1.09382,-1.781083 1.09382,-1.868202 0,-0.07744 -0.0484,-0.145197 -0.15488,-0.203275 -0.84214,-0.454951 -2.38123,-0.842143 -2.67162,-0.842143 -0.0968,0 -0.18392,0.02904 -0.25168,0.125837 l -0.50335,0.696946 v -3.320171 c 0,-0.106478 -0.0774,-0.193596 -0.18391,-0.193596 h -1.90692 c -0.10648,0 -0.1936,0.08712 -0.1936,0.193596 v 8.160071 c 0,0.106478 0.0871,0.183916 0.1936,0.183916 z"
         id="text2-26-3-7"
         style="font-size:9.6798px;font-family:'FOT-Yuruka Std';-inkscape-font-specification:'FOT-Yuruka Std';fill:#ff9cab;stroke-width:0.302493"
         transform="rotate(13.977006)"
         aria-label="ト" /><path
         d="m 144.49307,90.323088 c 0.28072,0 0.45496,-0.145197 0.45496,-0.367833 v -1.277733 c 0,-0.222636 -0.10648,-0.300074 -0.25168,-0.300074 l -1.99404,-0.0484 c -0.12584,-0.0097 -0.27103,-0.03872 -0.27103,-0.280714 v -0.01936 c 0,-0.212955 0.01,-0.522709 0.0194,-0.880862 l 3.23305,-0.154876 c 0.11616,-0.0097 0.20328,-0.0968 0.20328,-0.212956 l -0.0871,-1.47133 c -0.01,-0.116157 -0.16456,-0.203275 -0.28072,-0.203275 l -3.02977,0.145197 c 0.01,-0.271035 0.0194,-0.542069 0.0194,-0.803424 l 1.5294,0.03872 c 0.11616,0 0.21296,-0.08712 0.21296,-0.203275 l 0.029,-1.432611 c 0,-0.116157 -0.0871,-0.212955 -0.20328,-0.212955 l -4.96573,-0.106478 c -0.11616,0 -0.22264,0.08712 -0.22264,0.203276 l -0.0194,1.43261 c 0,0.116158 0.0871,0.212956 0.20328,0.212956 l 1.10349,0.01936 -0.0194,0.96798 -1.80044,0.08712 c -0.10648,0.0097 -0.1452,0.08712 -0.1452,0.183917 v 0.02904 l 0.0871,1.47133 c 0.01,0.116157 0.10648,0.203275 0.22264,0.203275 l 1.60685,-0.07744 -0.0194,1.209975 v 0.0484 c 0,0.909901 0.29039,1.587487 1.68428,1.664926 l 2.65227,0.135517 z"
         id="text2-26-3-7-1"
         style="font-size:9.6798px;font-family:'FOT-Yuruka Std';-inkscape-font-specification:'FOT-Yuruka Std';fill:#e46781;stroke-width:0.302493"
         transform="rotate(15.227619)"
         aria-label="モ" /><path
         style="display:inline;fill:#ff9cab;fill-opacity:1;stroke-width:0.264583"
         d="m 128.40637,115.14843 c 1.60892,0.56728 3.24018,0.74342 4.10406,0.44316 0.49661,-0.17261 0.49661,-0.17261 1.09841,-1.38306 0.6572,-1.32402 0.88835,-2.17943 0.88198,-3.27773 -0.003,-0.49754 0.0494,-0.65959 0.5823,-1.80468 0.32201,-0.69192 0.64482,-1.42856 0.71737,-1.63697 0.16782,-0.48202 0.0762,-0.95381 -0.21308,-1.09833 -0.18559,-0.0927 -0.94309,9.3e-4 -1.44964,0.17918 -0.73141,0.2574 -0.71366,0.26278 -1.40301,-0.42807 -1.12179,-1.12428 -2.74622,-1.91264 -4.19319,-2.03499 -0.62744,-0.0531 -0.62744,-0.0531 -1.11889,-0.72706 -0.61525,-0.84375 -1.1262,-1.15518 -1.39027,-0.84739 -0.091,0.10612 -0.19472,0.3536 -0.23045,0.55003 -0.12855,0.70769 -0.70407,2.14182 -0.94852,2.36359 -0.42508,0.38561 -1.12495,1.73311 -1.35394,2.60696 -0.17162,0.65471 -0.2615,0.85926 -0.49884,1.13546 -0.54324,0.63213 -0.61386,0.889 -0.41128,1.49586 0.37143,1.11275 1.89061,2.48895 3.97161,3.5978 0.64718,0.34492 1.48211,0.73478 1.85537,0.86635 z m 1.03653,-1.11935 c 0.0107,-0.3128 0.0706,-0.67123 0.13319,-0.79646 0.15057,-0.30145 0.63735,-0.47088 0.93395,-0.32499 0.12925,0.0637 0.25408,0.0773 0.27746,0.0303 0.0709,-0.14191 0.52833,0.14472 0.62801,0.39349 0.12228,0.30508 0.24972,1.74766 0.15002,1.69786 -0.0424,-0.0212 -0.13977,-0.37913 -0.21625,-0.79547 -0.14356,-0.78081 -0.29678,-1.05786 -0.54042,-0.97655 -0.0772,0.0254 -0.2226,0.006 -0.32309,-0.0444 -0.1005,-0.0502 -0.29289,-0.0482 -0.42747,0.004 -0.23475,0.0917 -0.24994,0.12071 -0.37123,0.71004 -0.13804,0.67119 -0.1551,0.72492 -0.22001,0.6925 -0.024,-0.012 -0.035,-0.2778 -0.0243,-0.5906 z m -5.02325,-3.77429 c 0.15752,-0.14412 2.07092,-0.34971 2.05253,-0.22055 -0.0246,0.17193 -0.43474,0.30525 -1.1844,0.38483 -0.68564,0.0729 -1.05152,0.004 -0.86813,-0.16428 z m 3.6178,0.34119 c -0.29778,-0.69334 -0.34154,-0.94753 -0.18064,-1.04709 0.18754,-0.11601 0.43057,0.13883 0.62777,0.65798 0.11367,0.2995 0.24824,0.53135 0.299,0.51522 0.0506,-0.0167 0.30618,-0.16727 0.56762,-0.33605 0.26144,-0.16871 0.5272,-0.29939 0.5906,-0.29037 0.10745,0.0152 0.21177,0.30349 0.35873,0.99063 0.0605,0.28449 0.0605,0.28449 0.44726,-0.11643 0.46806,-0.48468 0.7127,-0.57212 0.80736,-0.28856 0.0547,0.16408 0.0197,0.24587 -0.22195,0.51795 -0.80254,0.90357 -1.23458,0.9472 -1.48773,0.15023 -0.0774,-0.24348 -0.15982,-0.45225 -0.18323,-0.46395 -0.0234,-0.0116 -0.25743,0.11083 -0.52001,0.2724 -0.30724,0.18896 -0.53643,0.26418 -0.6429,0.21106 -0.0909,-0.0454 -0.29895,-0.39351 -0.4621,-0.77347 z m 4.59992,2.30712 c -0.49487,-0.65981 -0.64813,-1.0721 -0.33768,-0.90855 0.20916,0.10994 1.22308,1.48945 1.20228,1.63538 -0.0325,0.2274 -0.34766,-0.0376 -0.86456,-0.72684 z m -7.82873,-4.3443 c 0.17693,-0.0113 0.82337,0.10179 1.6056,0.28098 0.28165,0.0646 0.44476,0.24463 0.36541,0.40349 -0.0334,0.0667 -0.40658,-8.7e-4 -0.87828,-0.15919 -0.17548,-0.0589 -0.34258,-0.0998 -0.37132,-0.0911 -0.029,0.008 -0.24655,-0.0826 -0.48397,-0.20294 -0.33713,-0.17111 -0.38918,-0.22153 -0.23741,-0.23129 z m 7.54478,2.70573 c -0.20002,-0.28246 0.12855,-0.36446 0.48709,-0.12157 0.15892,0.10762 0.47874,0.30905 0.71076,0.44757 0.68056,0.40629 0.659,0.54923 -0.0393,0.26065 -0.33966,-0.1403 -0.7113,-0.29027 -0.82593,-0.33326 -0.11459,-0.0429 -0.26432,-0.15699 -0.33263,-0.25337 z m -5.27991,-3.00515 c -0.201,-0.46495 -0.12513,-0.95471 0.19851,-1.28054 0.64988,-0.65431 1.62785,-0.0914 1.48982,0.85753 -0.064,0.44007 -0.29722,0.71863 -0.73381,0.87663 -0.42968,0.15544 -0.75882,-9.7e-4 -0.95449,-0.45369 z m 4.6345,1.34439 c -0.0821,-0.30933 -0.0676,-0.50404 0.0527,-0.7451 0.50784,-1.01674 1.70608,-0.4497 1.55377,0.73534 -0.0801,0.62331 -0.82514,0.94115 -1.32017,0.56319 -0.0969,-0.0739 -0.22574,-0.32298 -0.28635,-0.55336 z"
         id="path866" /><g
         id="g25-2-1"
         transform="matrix(-0.52394633,0.20020463,-0.20020463,-0.52394633,138.18339,110.64072)"
         style="stroke:#ff9cab;stroke-width:1.24801;stroke-dasharray:none;stroke-opacity:1"><path
           style="fill:none;fill-opacity:1;stroke:#ff9cab;stroke-width:1.24801;stroke-linecap:round;stroke-dasharray:none;stroke-opacity:1"
           d="m 160.53649,81.252814 4.45728,8.390623"
           id="path8-6-3" /><path
           style="fill:none;fill-opacity:1;stroke:#ff9cab;stroke-width:1.24801;stroke-linecap:round;stroke-dasharray:none;stroke-opacity:1"
           d="m 163.47839,79.31412 4.56484,5.991354"
           id="path9-7-2" /><path
           style="fill:none;fill-opacity:1;stroke:#ff9cab;stroke-width:1.24801;stroke-linecap:round;stroke-dasharray:none;stroke-opacity:1"
           d="m 166.04905,77.171338 6.69873,4.85617 v 0"
           id="path24-8-9" /></g><g
         id="g25-2-1-5"
         transform="matrix(0.55845415,0.05225524,-0.05225524,0.55845415,29.104061,97.294121)"
         style="stroke:#e46781;stroke-width:1.24801;stroke-dasharray:none;stroke-opacity:1"><path
           style="fill:none;fill-opacity:1;stroke:#e46781;stroke-width:1.24801;stroke-linecap:round;stroke-dasharray:none;stroke-opacity:1"
           d="m 160.53649,81.252814 4.45728,8.390623"
           id="path8-6-3-2" /><path
           style="fill:none;fill-opacity:1;stroke:#e46781;stroke-width:1.24801;stroke-linecap:round;stroke-dasharray:none;stroke-opacity:1"
           d="m 163.47839,79.31412 4.56484,5.991354"
           id="path9-7-2-1" /><path
           style="fill:none;fill-opacity:1;stroke:#e46781;stroke-width:1.24801;stroke-linecap:round;stroke-dasharray:none;stroke-opacity:1"
           d="m 166.04905,77.171338 6.69873,4.85617 v 0"
           id="path24-8-9-9" /></g><g
         id="g3"
         transform="matrix(0.09163625,-0.09022546,0.09022546,0.09163625,9.2673293,125.19187)"
         style="stroke-width:7.77608"><ellipse
           style="display:inline;fill:#ffffff;fill-opacity:1;stroke-width:2.05743"
           id="path1570"
           ry="18.533897"
           rx="20.707626"
           cy="221.48692"
           cx="102.07841" /><path
           style="display:inline;fill:#e46781;fill-opacity:1;stroke-width:5.47633"
           d="m 108.16706,271.08481 c -8.702637,0.20956 -14.271057,-0.003 -18.380627,-0.70119 -3.24263,-0.55101 -8.39267,-1.81876 -11.44455,-2.81722 -3.05188,-0.99845 -7.25509,-2.87126 -9.34047,-4.16179 -2.08538,-1.29053 -4.52626,-3.47263 -5.42419,-4.84912 -1.54945,-2.37527 -2.0114,-3.01872 -1.41046,-12.30108 0.26161,-4.04099 0.31582,-6.10294 0.71127,-9.12965 0.35332,-2.70427 1.02911,-6.16347 1.48155,-8.04649 0.24165,-0.99258 0.98953,-3.11739 1.66196,-4.72181 l 1.2226,-2.91711 c 3.71653,-7.68789 -1.69034,4.0223 1.86256,-3.89485 l 1.11619,-1.84013 c 0.6139,-1.01207 2.25946,-3.35597 3.6568,-5.20865 l 2.54061,-3.36852 -1.33868,-6.63911 c -0.76139,-3.77603 -1.15353,-7.65663 -0.90933,-8.9986 0.29874,-1.64164 0.96273,-2.56853 2.18252,-3.04663 1.13196,-0.44368 3.30564,-0.43149 6.13461,0.0344 2.4098,0.39687 7.14429,1.55316 10.52109,2.56952 5.18477,1.56054 7.919547,1.89741 17.584177,2.16603 6.2945,0.17494 13.16122,0.36092 15.25939,0.41328 2.09817,0.0524 7.62171,-0.16712 12.27454,-0.48773 7.36508,-0.50749 8.68884,-0.42812 10.23073,0.61341 1.1793,0.79661 1.77258,1.84783 1.77564,3.14625 0.003,1.07246 -0.81762,4.94591 -1.82255,8.60767 l -1.82716,6.65774 1.44094,5.14075 c 0.79252,2.82741 1.62854,6.91052 1.85781,9.07358 0.26561,2.50573 -0.0527,6.68631 -0.8772,11.5209 -1.12845,6.61681 -1.1807,8.16109 -0.40829,12.06491 0.72887,3.68372 0.72212,4.88071 -0.0382,6.75653 -0.50816,1.25383 -2.24574,3.4461 -3.86129,4.87171 -1.61554,1.42562 -5.01149,3.44843 -7.54655,4.49515 -2.53505,1.04672 -7.26225,2.53179 -10.50487,3.30016 -4.2687,1.01149 -9.34102,1.47998 -18.38063,1.69766 z M 96.303043,237.10369 c 1.98574,-0.2925 3.25611,-2.40273 4.572737,-3.91772 0.96674,-1.11239 2.15967,-3.32142 2.3804,-3.72583 0.4663,-0.85432 1.09603,-1.76763 1.09603,-2.67947 0,-0.91184 -0.41337,-2.01157 -0.9186,-2.44385 -0.50524,-0.43227 -3.880187,-1.12086 -5.879777,-1.2613 -2.00596,-0.14089 -4.38843,-0.75053 -6.01748,0.42842 -0.75218,0.54435 -0.98982,1.6513 -1.05632,2.5774 -0.12543,1.74693 0.76266,3.42258 1.2775,5.09663 0.48778,1.58606 1.47314,3.98612 1.71226,4.67436 0.30021,0.86411 1.81184,1.40181 2.83325,1.25136 z m 17.903157,-8.13364 c 1.28765,0.0655 2.76813,-0.86618 3.74197,-1.86265 0.95579,-0.97799 1.459,-2.37601 1.7433,-3.71362 0.21446,-1.009 0.19398,-2.09473 -0.062,-3.094 -0.28363,-1.10722 -0.67738,-2.23185 -1.588,-3.03901 -0.84447,-0.82369 -2.02971,-1.4608 -3.20908,-1.49313 -1.24029,-0.034 -2.49202,0.60161 -3.45578,1.38303 -1.04888,0.85044 -1.81417,2.09059 -2.25008,3.36862 -0.3975,1.16544 -0.25289,3.6854 -0.25289,3.6854 0.29657,1.37144 0.93882,2.53557 1.89339,3.42445 0.72685,0.67682 1.74814,0.98105 2.70352,1.25243 0.2405,0.0601 0.48914,0.0733 0.73565,0.0885 z m -26.153797,-5.20289 c 1.4356,-0.36463 2.78203,-1.2989 3.69913,-2.462 1.04551,-1.32597 1.70682,-3.06732 1.74563,-4.75544 0.0324,-1.40963 -0.28632,-3.02705 -1.27361,-4.0337 -0.95673,-0.97549 -2.5223,-1.42084 -3.88414,-1.30988 -1.60796,0.13102 -3.17935,1.08468 -4.27526,2.26861 -1.08186,1.16877 -1.90742,3.0114 -1.90742,4.38061 0,1.19949 0.13171,2.53879 0.73895,3.60435 0.50245,0.88168 1.32492,1.63849 2.25423,2.04618 0.88957,0.39025 1.96098,0.5004 2.90249,0.26127 z"
           id="path334"
           sodipodi:nodetypes="scssssaccssccsscssssssssscscsssscsssacaasssaaaacaaaaacaaasacaaaaaasaaa" /><path
           style="display:inline;fill:#ffffff;fill-opacity:1;stroke-width:2.05743"
           d="m 65.807093,216.3352 c -0.25425,0.0535 -0.50035,0.13943 -0.74023,0.23828 -0.20952,0.11482 -0.40345,0.27359 -0.51908,0.48592 -0.10526,0.19835 -0.15304,0.42428 -0.15949,0.64781 -0.003,0.23131 -0.036,0.48174 0.0894,0.68987 0.0998,0.18731 0.21632,0.37387 0.39577,0.49476 0.31066,0.2284 0.63317,0.44011 0.94887,0.66143 1.01305,0.69837 2.02484,1.39861 3.03867,2.09582 1.45853,0.96854 2.91531,1.93975 4.37492,2.90663 1.19844,0.77907 2.40409,1.54695 3.61204,2.31117 0.26072,0.16311 0.5176,0.33265 0.78056,0.492 0.26266,0.14751 0.52325,0.30275 0.80744,0.406 0.25884,0.0784 0.53635,0.0306 0.79018,-0.0441 0.26009,-0.0756 0.52371,-0.21264 0.65708,-0.45979 0.13523,-0.2278 0.12757,-0.50494 0.0943,-0.75876 -0.0382,-0.23628 -0.0695,-0.48822 -0.21781,-0.68512 -0.14354,-0.20939 -0.3596,-0.35043 -0.5572,-0.50341 -0.51769,-0.397 -1.03938,-0.78868 -1.56358,-1.17704 -0.81015,-0.60409 -1.63316,-1.19061 -2.45827,-1.77403 -0.82612,-0.58523 -1.65349,-1.16872 -2.48725,-1.74304 -0.60092,-0.41286 -1.20233,-0.82507 -1.81077,-1.22681 -0.83329,-0.55508 -1.66972,-1.10553 -2.51036,-1.64941 -0.60212,-0.38532 -1.20485,-0.76966 -1.80743,-1.15426 -0.20312,-0.11421 -0.41125,-0.24488 -0.65076,-0.25739 -0.0356,-8e-4 -0.0714,0.003 -0.10706,0.004 z"
           id="path2083"
           sodipodi:nodetypes="ccccc" /><path
           style="display:inline;fill:#ffffff;fill-opacity:1;stroke-width:2.05743"
           d="m 78.498503,230.69262 c -0.47559,0.02 -0.9509,0.0454 -1.42576,0.0786 -1.29656,0.0819 -2.59221,0.17781 -3.8876,0.27634 -1.35545,0.10379 -2.70961,0.22354 -4.06426,0.33712 -1.92883,0.16822 -3.85764,0.33667 -5.78644,0.50526 -0.275,0.0541 -0.53257,0.18569 -0.74219,0.3711 -0.18533,0.21507 -0.40122,0.42661 -0.47683,0.70896 -0.0834,0.3045 0.0152,0.64645 0.23643,0.86933 0.19457,0.2091 0.48783,0.28907 0.76579,0.2928 0.32048,0.006 0.64055,-0.0188 0.96084,-0.0271 1.60831,-0.0599 3.2162,-0.13066 4.82432,-0.19553 1.10373,-0.0545 2.20763,-0.10604 3.31083,-0.17077 0.62082,-0.0323 1.24123,-0.0714 1.86138,-0.11467 0.98366,-0.0683 1.96703,-0.14184 2.94878,-0.2339 0.5802,-0.0531 1.16021,-0.10834 1.74033,-0.1623 0.23753,-0.0366 0.45188,-0.17339 0.60378,-0.35706 0.15052,-0.19485 0.30537,-0.3917 0.39874,-0.62181 0.0835,-0.19853 0.0893,-0.41832 0.0561,-0.62855 -0.0544,-0.22884 -0.0575,-0.49655 -0.23829,-0.66993 -0.16444,-0.14837 -0.38028,-0.23849 -0.60089,-0.25446 -0.16127,-0.0178 -0.32345,-0.0136 -0.48504,-0.003 z"
           id="path2085"
           sodipodi:nodetypes="cssccssccc" /><path
           style="display:inline;fill:#ffffff;fill-opacity:1;stroke-width:2.05743"
           d="m 137.44576,225.77075 c -0.62086,0.12362 -1.21924,0.33556 -1.81197,0.55396 -1.09725,0.39577 -2.18656,0.81301 -3.2746,1.23328 -1.45263,0.56306 -2.88918,1.16631 -4.32913,1.76074 -1.10151,0.45957 -2.20113,0.92362 -3.29914,1.39147 -0.43367,0.20327 -0.85354,0.43426 -1.27656,0.65843 -0.32839,0.18417 -0.65677,0.36834 -0.98516,0.55251 -0.15468,0.24402 -0.43755,0.41875 -0.46736,0.72901 -0.0661,0.28912 -0.12195,0.58987 -0.0717,0.88623 0.0501,0.24444 0.19726,0.48099 0.42742,0.59116 0.31502,0.17691 0.70205,0.17153 1.04096,0.0711 0.39903,-0.11738 0.77619,-0.29627 1.16182,-0.45009 2.04725,-0.84425 4.09173,-1.69541 6.14716,-2.51962 0.64044,-0.25609 1.28029,-0.5137 1.92661,-0.75469 1.56153,-0.59232 3.13411,-1.15489 4.70162,-1.73107 0.27187,-0.11186 0.56425,-0.17892 0.82081,-0.32424 0.24907,-0.1324 0.47619,-0.31677 0.62465,-0.55952 0.19679,-0.29909 0.29814,-0.67163 0.23879,-1.02812 -0.0565,-0.31602 -0.26948,-0.58766 -0.53856,-0.75493 -0.22182,-0.1388 -0.46459,-0.25962 -0.72631,-0.29527 -0.10264,-0.0138 -0.20601,-0.0219 -0.30935,-0.0103 z"
           id="path2087"
           sodipodi:nodetypes="ccccc"
           inkscape:label="path2087" /><path
           style="display:inline;fill:#ffffff;fill-opacity:1;stroke-width:2.05743"
           d="m 121.7192,237.16333 c -0.26515,0.0351 -0.53878,0.10969 -0.75057,0.28033 -0.17602,0.13631 -0.27845,0.35523 -0.29177,0.57553 -3.5e-4,0.25033 0.0941,0.4901 0.17906,0.72226 0.0944,0.2396 0.23509,0.46602 0.44396,0.62187 0.21857,0.18416 0.4972,0.27015 0.76423,0.35767 0.87422,0.28043 1.75021,0.55537 2.62927,0.82025 1.39806,0.42433 2.7952,0.85175 4.19387,1.27407 0.82118,0.24686 1.64324,0.49099 2.46846,0.72404 1.39865,0.38205 2.79931,0.75688 4.20339,1.11852 0.42967,0.10859 0.85935,0.21713 1.28901,0.32577 0.19679,0.0709 0.41169,0.12982 0.61775,0.0586 0.13632,-0.0221 0.28003,-0.0586 0.36567,-0.17675 0.15452,-0.15199 0.20852,-0.37714 0.20982,-0.58785 -0.0108,-0.27247 -0.0435,-0.54563 -0.12588,-0.80648 -0.0615,-0.225 -0.24027,-0.39625 -0.4365,-0.51093 -0.22343,-0.12711 -0.46289,-0.22344 -0.70151,-0.31784 -0.27875,-0.10759 -0.55949,-0.20966 -0.84302,-0.304 -1.03293,-0.35534 -2.07231,-0.6915 -3.10899,-1.03566 -0.48998,-0.16177 -0.97921,-0.32582 -1.47216,-0.4784 -0.82518,-0.26146 -1.652,-0.51777 -2.48123,-0.7661 -0.40937,-0.12417 -0.81873,-0.24842 -1.23084,-0.3633 -0.82734,-0.23692 -1.65523,-0.47199 -2.48416,-0.70327 -0.96465,-0.26314 -1.93227,-0.5152 -2.90075,-0.76385 -0.17578,-0.0416 -0.35584,-0.0728 -0.53711,-0.0645 z"
           id="path2089"
           sodipodi:nodetypes="ccccc" /></g><path
         d="m 85.989892,86.713859 -0.406393,0.146963 -0.14697,-0.406387 0.406393,-0.146969 z m 0.88123,2.436731 0.4064,-0.14697 c 0.0557,0.15393 0.0196,0.32609 -0.0931,0.4447 -0.11276,0.11862 -0.28284,0.16341 -0.43938,0.11561 z m -4.132373,-1.260964 -0.14698,-0.406392 0.13535,-0.04899 0.13769,0.04204 z m 0.23513,-6.974002 0.4064,-0.146972 0.29394,0.812789 -0.4064,0.146964 z m -4.58277,2.576439 -0.4064,0.146981 -0.29394,-0.812789 0.4064,-0.146972 z m 5.46402,-0.139673 0.40639,-0.146969 0.29395,0.812781 -0.40639,0.146968 z m -2.9572,1.988561 -0.40638,0.146969 -0.29395,-0.812794 0.40639,-0.146964 z m 5.498353,1.225931 0.88124,2.436738 -0.81279,0.29394 -0.881233,-2.436738 z m 0.34872,2.997048 -4.132383,-1.260964 0.25225,-0.826683 4.132413,1.261043 z m -3.859283,-1.267916 -4.87672,1.763666 -0.29394,-0.81279 4.87671,-1.763656 z m -4.87672,1.763666 c -0.67363,0.24362 -1.416192,-0.10382 -1.659902,-0.77767 l 0.812792,-0.29395 c 0.0812,0.22441 0.32786,0.34033 0.55315,0.25888 z m -1.659902,-0.77767 -2.64377,-7.310342 0.81279,-0.293941 2.643772,7.310333 z m -2.64377,-7.310342 c -0.24371,-0.67388 0.10483,-1.415934 0.7785,-1.659535 l 0.29394,0.812789 c -0.2253,0.08148 -0.3408,0.328345 -0.25962,0.552824 z m 0.7785,-1.659535 9.753432,-3.527308 0.29394,0.812789 -9.753432,3.527308 z m 9.753432,-3.527308 c 0.67365,-0.243628 1.416183,0.103833 1.659913,0.777678 l -0.812783,0.293945 c -0.0812,-0.224479 -0.32788,-0.340356 -0.55316,-0.258887 z m 1.659913,0.777678 2.64377,7.310337 -0.81278,0.29394 -2.643773,-7.310332 z m 2.64377,7.310337 c 0.2437,0.673884 -0.10481,1.415898 -0.77848,1.659517 l -0.29395,-0.812781 c 0.22529,-0.08148 0.3408,-0.328389 0.25961,-0.552814 z m -0.77848,1.659517 -1.62557,0.587881 -0.29395,-0.81278 1.62557,-0.587882 z m -4.494603,-4.803956 -4.87672,1.763667 -0.29394,-0.812789 4.87671,-1.763658 z m 0.88125,2.436774 -3.25114,1.175773 -0.29394,-0.812789 3.25114,-1.175773 z"
         fill="#000000"
         id="path1"
         style="fill:#ff9cab;fill-opacity:1;stroke-width:14.1111" /><g
         id="g7"
         transform="matrix(0.03352373,-0.01030619,-0.01030619,-0.03352373,71.793443,164.90359)"
         style="fill:#e46781;fill-opacity:1;stroke-width:11.7874"
         inkscape:transform-center-x="0.64425634"
         inkscape:transform-center-y="1.3993201">
	<path
   d="m 120,340 c -4.418,0 -8,3.582 -8,8 0,6.617 -5.383,12 -12,12 -6.617,0 -12,-5.383 -12,-12 0,-6.617 5.383,-12 12,-12 4.418,0 8,-3.582 8,-8 0,-4.418 -3.582,-8 -8,-8 -15.439,0 -28,12.561 -28,28 0,15.439 12.561,28 28,28 15.439,0 28,-12.561 28,-28 0,-4.418 -3.582,-8 -8,-8 z"
   id="path1-8"
   style="fill:#e46781;fill-opacity:1;stroke-width:11.7874" />
	<path
   d="m 432,340 c -4.418,0 -8,3.582 -8,8 0,6.617 -5.383,12 -12,12 -6.617,0 -12,-5.383 -12,-12 0,-6.617 5.383,-12 12,-12 4.418,0 8,-3.582 8,-8 0,-4.418 -3.582,-8 -8,-8 -15.439,0 -28,12.561 -28,28 0,15.439 12.561,28 28,28 15.439,0 28,-12.561 28,-28 0,-4.418 -3.582,-8 -8,-8 z"
   id="path2"
   style="fill:#e46781;fill-opacity:1;stroke-width:11.7874" />
	<path
   d="M 432,264 H 64 c -4.418,0 -8,3.582 -8,8 0,4.418 3.582,8 8,8 h 368 c 4.418,0 8,-3.582 8,-8 0,-4.418 -3.582,-8 -8,-8 z"
   id="path3"
   style="fill:#e46781;fill-opacity:1;stroke-width:11.7874" />
	<path
   d="m 512,288 c 0,-1.525 -0.435,-2.946 -1.176,-4.159 C 507.82,268.582 499.018,255.839 484.891,246.562 470.796,237.308 451.519,232 432,232 H 359.855 L 330.139,176.812 C 323.086,163.714 310.405,154.884 296,152.604 V 136 c 0,-17.645 -14.355,-32 -32,-32 h -64 c -17.645,0 -32,14.355 -32,32 v 16 h -10.106 c -16.085,0 -31.324,8.418 -39.901,22.004 l -34.298,42.588 c -5.609,0.898 -10.947,1.705 -16.135,2.489 -19.514,2.951 -34.927,5.281 -46.223,9.662 C 16.059,230.789 0,237.018 0,256 v 64 c 0,22.056 17.944,40 40,40 0.406,0 0.801,-0.04 1.19,-0.098 C 46.727,387.304 70.99,408 100,408 c 28.975,0 53.218,-20.647 58.792,-48 h 194.415 c 5.575,27.353 29.817,48 58.792,48 28.975,0 53.218,-20.647 58.792,-48 H 504 c 4.418,0 8,-3.582 8,-8 v -56 c 0,-2.003 -0.115,-3.961 -0.289,-5.895 C 511.894,289.434 512,288.73 512,288 Z m -32,-24 c 0.464,0 0.915,-0.048 1.357,-0.124 5.412,4.609 9.345,9.992 11.758,16.124 H 480 c -4.411,0 -8,-3.589 -8,-8 0,-4.411 3.589,-8 8,-8 z M 341.683,232 H 153.532 c -3.492,0 -6.593,-1.82 -8.297,-4.868 -1.703,-3.048 -1.627,-6.643 0.203,-9.617 l 13.599,-22.098 c 1.297,-2.107 3.64,-3.417 6.115,-3.417 H 320 c 0.047,0 0.093,-0.006 0.141,-0.007 z M 184,136 c 0,-8.822 7.178,-16 16,-16 h 64 c 8.822,0 16,7.178 16,16 v 16 H 184 Z M 16,256 c 4.411,0 8,3.589 8,8 0,4.411 -3.589,8 -8,8 z m 84,136 c -24.262,0 -44,-19.738 -44,-44 0,-24.262 19.738,-44 44,-44 24.262,0 44,19.738 44,44 0,24.262 -19.738,44 -44,44 z m 312,0 c -24.262,0 -44,-19.738 -44,-44 0,-24.262 19.738,-44 44,-44 24.262,0 44,19.738 44,44 0,24.262 -19.738,44 -44,44 z m 84,-48 H 471.852 C 469.785,312.776 443.739,288 412,288 c -31.739,0 -57.785,24.776 -59.852,56 H 159.852 C 157.785,312.776 131.739,288 100,288 68.259,288 42.211,312.78 40.148,344.007 40.098,344.007 40.05,344 40,344 26.766,344 16,333.233 16,320 v -32 c 13.234,0 24,-10.767 24,-24 0,-8.813 -4.778,-16.527 -11.877,-20.7 8.585,-3.087 22.117,-5.418 41.827,-8.398 6.156,-0.931 12.522,-1.893 19.338,-3.006 1.945,-0.317 3.705,-1.343 4.941,-2.878 l 36.525,-45.354 c 0.211,-0.262 0.406,-0.538 0.583,-0.825 C 136.969,173.687 147.145,168 157.892,168 h 130.703 c 7.838,0 15.222,2.929 20.855,8 h -144.3 c -7.99,0 -15.554,4.228 -19.742,11.032 l -13.598,22.097 c -4.911,7.98 -5.114,17.628 -0.544,25.808 4.571,8.18 12.894,13.063 22.264,13.063 H 352 c 0.542,0 1.071,-0.055 1.583,-0.158 0.489,0.093 0.985,0.158 1.494,0.158 H 432 c 11.409,0 22.623,2.088 32.278,5.889 C 459.212,258.293 456,264.776 456,272 c 0,13.233 10.766,24 24,24 h 16 z"
   id="path4"
   style="fill:#e46781;fill-opacity:1;stroke-width:11.7874" />
	<path
   d="m 208,128 c -2.1,0 -4.17,0.85 -5.66,2.34 -1.49,1.49 -2.34,3.56 -2.34,5.66 0,2.1 0.85,4.17 2.34,5.66 1.49,1.489 3.55,2.34 5.66,2.34 2.11,0 4.17,-0.851 5.66,-2.34 1.49,-1.49 2.34,-3.561 2.34,-5.66 0,-2.101 -0.85,-4.17 -2.34,-5.66 C 212.17,128.85 210.1,128 208,128 Z"
   id="path5"
   style="fill:#e46781;fill-opacity:1;stroke-width:11.7874" />
	<path
   d="m 232,128 c -2.1,0 -4.17,0.85 -5.66,2.34 -1.49,1.49 -2.34,3.56 -2.34,5.66 0,2.1 0.85,4.17 2.34,5.66 1.49,1.489 3.55,2.34 5.66,2.34 2.11,0 4.17,-0.851 5.66,-2.34 1.49,-1.49 2.34,-3.561 2.34,-5.66 0,-2.101 -0.85,-4.17 -2.34,-5.66 C 236.17,128.85 234.1,128 232,128 Z"
   id="path6"
   style="fill:#e46781;fill-opacity:1;stroke-width:11.7874" />
	<path
   d="m 256,128 c -2.1,0 -4.17,0.85 -5.66,2.34 -1.49,1.49 -2.34,3.56 -2.34,5.66 0,2.1 0.85,4.17 2.34,5.66 1.49,1.489 3.55,2.34 5.66,2.34 2.11,0 4.17,-0.851 5.66,-2.34 1.49,-1.49 2.34,-3.561 2.34,-5.66 0,-2.101 -0.85,-4.17 -2.34,-5.66 C 260.17,128.85 258.1,128 256,128 Z"
   id="path7"
   style="fill:#e46781;fill-opacity:1;stroke-width:11.7874" />
</g><g
         id="Page-1"
         stroke="none"
         stroke-width="18.247"
         fill="none"
         fill-rule="evenodd"
         transform="matrix(0.02118001,-0.00804453,0.00804453,0.02118001,51.23492,92.874648)"
         style="fill:#ff9cab;fill-opacity:1"><g
           id="add"
           fill="#000000"
           transform="translate(32,42.666667)"
           style="fill:#ff9cab;fill-opacity:1;stroke-width:18.247"><path
             d="m 246.31293,5.628927 c 6.61467,3.7798102 12.09663,9.261778 15.87644,15.876446 L 444.66704,340.84129 c 11.69109,20.45941 4.58297,46.52254 -15.87645,58.21364 -6.44683,3.6839 -13.74344,5.62162 -21.16859,5.62162 H 42.666667 C 19.102517,404.67655 0,385.57403 0,362.00988 0,354.58474 1.9377202,347.28812 5.6216259,340.84129 L 188.09929,21.505373 C 199.79038,1.045962 225.85352,-6.062165 246.31293,5.628927 Z M 224,272 c -15.23809,0 -26.66667,11.264 -26.66667,26.28267 0,15.70133 11.08225,26.96533 26.66667,26.96533 15.23809,0 26.66667,-11.264 26.66667,-26.624 C 250.66667,283.264 239.23809,272 224,272 Z m 21.33333,-165.33333 h -42.66666 v 128 h 42.66666 z"
             id="Combined-Shape"
             style="fill:#ff9cab;fill-opacity:1;stroke-width:18.247" /></g></g><path
         d="m 93.29046,148.63444 0.430137,-0.0416 0.04163,0.43014 -0.430136,0.0416 z m -0.249645,-2.57913 -0.430139,0.0416 c -0.0158,-0.16294 0.06185,-0.32077 0.200438,-0.40774 0.138647,-0.087 0.314512,-0.0882 0.454325,-0.003 z m 3.690779,2.24605 0.04164,0.43015 -0.143272,0.0139 -0.12298,-0.0748 z m -1.956705,6.69802 -0.430148,0.0416 -0.08327,-0.86029 0.430146,-0.0416 z m 5.078434,-1.35991 0.430147,-0.0416 0.0833,0.86029 -0.430147,0.0416 z m -5.328079,-1.21927 -0.430139,0.0416 -0.08328,-0.86028 0.430139,-0.0416 z m 3.357867,-1.19337 0.430132,-0.0416 0.0833,0.86029 -0.43014,0.0416 z m -5.022792,-2.55074 -0.249643,-2.57914 0.860288,-0.0833 0.249633,2.57914 z m 0.405159,-2.98995 3.690779,2.24605 -0.449319,0.73835 -3.690786,-2.24614 z m 3.424479,2.18509 5.161713,-0.49963 0.0833,0.86028 -5.161704,0.49963 z m 5.161713,-0.49963 c 0.713,-0.069 1.34624,0.45166 1.41529,1.16489 l -0.86029,0.0833 c -0.023,-0.23753 -0.23325,-0.41098 -0.4717,-0.38793 z m 1.41529,1.16489 0.74895,7.73755 -0.86029,0.0833 -0.74895,-7.73754 z m 0.74895,7.73755 c 0.069,0.71326 -0.45258,1.34575 -1.16561,1.41474 l -0.0833,-0.86029 c 0.23847,-0.0231 0.41156,-0.23361 0.38857,-0.47121 z m -1.16561,1.41474 -10.323412,0.99924 -0.08327,-0.86028 10.323412,-0.99925 z m -10.323412,0.99924 c -0.713016,0.069 -1.346229,-0.45168 -1.4153,-1.1649 l 0.86028,-0.0833 c 0.02302,0.2376 0.233267,0.41102 0.471712,0.38794 z m -1.4153,-1.1649 -0.748947,-7.73755 0.860278,-0.0833 0.748949,7.73754 z m -0.748947,-7.73755 c -0.06903,-0.71326 0.452551,-1.34572 1.165587,-1.41473 l 0.08328,0.86028 c -0.238462,0.0231 -0.411572,0.23365 -0.388554,0.47121 z m 1.165587,-1.41473 1.720566,-0.16653 0.08328,0.86028 -1.720566,0.16653 z m 3.163353,5.76825 5.161722,-0.49964 0.0833,0.86029 -5.161703,0.49963 z m -0.249645,-2.57917 3.441137,-0.3331 0.08327,0.86029 -3.441138,0.33308 z"
         fill="#000000"
         id="path1-2"
         style="fill:#e46781;fill-opacity:1;stroke-width:14.1111" /></g></g></svg>
